<svg id="e6ijs2bcoud61" xmlns="http://www.w3.org/2000/svg" xmlns:xlink="http://www.w3.org/1999/xlink" viewBox="0 0 53.380000 75.200000" shape-rendering="geometricPrecision" text-rendering="geometricPrecision"><style><![CDATA[#e6ijs2bcoud67_ts {animation: e6ijs2bcoud67_ts__ts 3000ms linear infinite reverse forwards}@keyframes e6ijs2bcoud67_ts__ts { 0% {transform: translate(28.965424px,39.255835px) scale(1,1)} 50% {transform: translate(28.965424px,39.255835px) scale(1.340018,1.340018)} 100% {transform: translate(28.965424px,39.255835px) scale(1,1)} }]]></style><g id="e6ijs2bcoud62"><g id="e6ijs2bcoud63"><g id="e6ijs2bcoud64"><path id="e6ijs2bcoud65" d="M52.630000,3.440000L45,0.200000C44.704996,0.004493,44.337352,-0.046978,44,0.060000L22.800000,6C22.586420,6.034688,22.387997,6.132159,22.230000,6.280000L0.420000,25.810000C0.112322,26.045074,-0.047553,26.425729,0,26.810000L0,61C0,69.860000,23.080000,74.370000,25.610000,74.930000L25.890000,74.930000C26.317469,74.882846,26.712608,74.679937,27,74.360000C27.840000,73.230000,46.420000,43.960000,46.560000,35.360000L53.330000,4.700000C53.369468,4.177844,53.094191,3.682346,52.630000,3.440000Z" fill="rgb(146,99,193)" stroke="none" stroke-width="1"/><path id="e6ijs2bcoud66" d="M52.910000,3.440000C52.630000,3.150000,51.640000,3.440000,51.220000,3.440000L29.410000,9.060000C29.196941,9.093737,29.000502,9.195464,28.850000,9.350000L5.910000,28.620000C5.673385,28.945976,5.572961,29.351260,5.630000,29.750000L5.630000,64.080000C5.630000,73.080000,27.160000,75.080000,29.550000,75.200000L29.690000,75.200000C30.068358,75.211048,30.433000,75.057898,30.690000,74.780000C32.940000,71.960000,53.340000,47.060000,53.340000,38.780000L53.340000,4.560000C53.484510,4.131841,53.303911,3.661444,52.910000,3.440000Z" fill="rgb(132,68,178)" stroke="none" stroke-width="1"/><g id="e6ijs2bcoud67_ts" transform="translate(28.965424,39.255835) scale(1,1)"><path id="e6ijs2bcoud67" d="M29.760000,25C26.867277,26.920126,25.050881,30.093259,24.860000,33.560000C24.860000,36.720000,27.060000,38.010000,29.760000,36.440000C32.661095,34.527723,34.480127,31.349986,34.660000,27.880000C34.660000,24.690000,32.470000,23.370000,29.760000,25ZM26,40.590000C22.740000,43.380000,19.190000,47.370000,19.190000,50.390000L19.190000,54L40.370000,41.710000L40.370000,38.150000C40.370000,35.150000,36.860000,35.200000,33.550000,36.230000C32.768514,38.051776,31.467714,39.602998,29.810000,40.690000C28.692057,41.549352,27.120568,41.490526,26.070000,40.550000Z" transform="translate(-29.501927,-39.255835)" fill="rgb(255,255,255)" stroke="none" stroke-width="1"/></g></g></g></g></svg>